<svg width="128" height="40" viewBox="0 0 128 40" fill="none" xmlns="http://www.w3.org/2000/svg">
<path d="M23.2798 18.979L18.5698 10.812C18.3897 10.5073 18.1333 10.2549 17.8259 10.0795C17.5185 9.90416 17.1707 9.81196 16.8168 9.81201H7.39581C7.04052 9.81208 6.69149 9.90563 6.38379 10.0833C6.07609 10.2609 5.82054 10.5164 5.64281 10.824L0.93281 18.988C0.757006 19.2963 0.664551 19.6451 0.664551 20C0.664551 20.3549 0.757006 20.7037 0.93281 21.012L5.64281 29.176C5.81976 29.4843 6.07514 29.7404 6.38302 29.9181C6.69089 30.0958 7.04031 30.189 7.39581 30.188H16.8158C17.1711 30.1879 17.5201 30.0944 17.8278 29.9168C18.1355 29.7391 18.3911 29.4837 18.5688 29.176L23.2788 21.012C23.4549 20.7022 23.5475 20.352 23.5477 19.9956C23.5479 19.6393 23.4556 19.289 23.2798 18.979ZM12.1058 27.004V25.604C13.2152 25.604 14.2996 25.275 15.222 24.6587C16.1444 24.0424 16.8633 23.1664 17.2878 22.1415C17.7124 21.1166 17.8235 19.9888 17.607 18.9008C17.3906 17.8127 16.8564 16.8133 16.072 16.0288C15.2875 15.2444 14.2881 14.7102 13.2001 14.4938C12.112 14.2774 10.9842 14.3884 9.95934 14.813C8.93443 15.2375 8.05842 15.9564 7.4421 16.8788C6.82577 17.8012 6.49681 18.8857 6.49681 19.995C6.49368 21.2183 6.89559 22.4082 7.63981 23.379L8.65181 22.393C8.16023 21.6895 7.89826 20.8512 7.90181 19.993C7.90181 19.1598 8.1489 18.3452 8.61183 17.6524C9.07476 16.9596 9.73274 16.4196 10.5026 16.1007C11.2724 15.7818 12.1195 15.6984 12.9367 15.861C13.754 16.0235 14.5047 16.4248 15.0939 17.014C15.683 17.6032 16.0843 18.3539 16.2469 19.1711C16.4094 19.9883 16.326 20.8354 16.0071 21.6053C15.6882 22.3751 15.1483 23.0331 14.4554 23.496C13.7626 23.9589 12.9481 24.206 12.1148 24.206V22.806C12.67 22.8044 13.2123 22.6383 13.6732 22.3287C14.1341 22.0191 14.4929 21.5799 14.7043 21.0664C14.9157 20.553 14.9701 19.9885 14.8609 19.4441C14.7516 18.8998 14.4834 18.4 14.0902 18.0079C13.6971 17.6159 13.1966 17.3492 12.6519 17.2414C12.1072 17.1337 11.5428 17.1898 11.03 17.4026C10.5172 17.6154 10.079 17.9755 9.77066 18.4372C9.46236 18.899 9.29781 19.4418 9.29781 19.997C9.2961 20.4887 9.42555 20.972 9.67281 21.397L10.7198 20.376C10.6849 20.2541 10.6673 20.1278 10.6678 20.001C10.6678 19.7164 10.7522 19.4382 10.9103 19.2015C11.0684 18.9649 11.2932 18.7805 11.5561 18.6715C11.8191 18.5626 12.1084 18.5341 12.3875 18.5897C12.6667 18.6452 12.9231 18.7822 13.1243 18.9835C13.3256 19.1847 13.4626 19.4411 13.5182 19.7203C13.5737 19.9994 13.5452 20.2888 13.4363 20.5517C13.3274 20.8146 13.1429 21.0394 12.9063 21.1975C12.6696 21.3556 12.3914 21.44 12.1068 21.44C11.9673 21.4388 11.8288 21.4152 11.6968 21.37L8.07681 24.902C8.043 24.9357 8.00503 24.9649 7.96381 24.989C7.95481 24.998 7.93781 24.998 7.92881 25.006C7.90168 25.0241 7.87247 25.0389 7.84181 25.05C7.82481 25.059 7.80681 25.059 7.78981 25.067L7.71081 25.093C7.69393 25.0926 7.67717 25.096 7.66181 25.103C7.63581 25.103 7.60981 25.112 7.59181 25.112C7.56581 25.112 7.53981 25.103 7.51281 25.103C7.4921 25.1038 7.47142 25.1007 7.45181 25.094L7.37281 25.068C7.35581 25.059 7.33781 25.059 7.32081 25.051C7.2927 25.0398 7.26615 25.025 7.24181 25.007C7.22604 25.0004 7.21125 24.9916 7.19781 24.981C7.17263 24.9629 7.1492 24.9425 7.12781 24.92C7.11881 24.911 7.10181 24.903 7.09281 24.885C5.96483 23.726 5.27251 22.2125 5.1333 20.6012C4.99409 18.9899 5.41655 17.38 6.32903 16.0447C7.24151 14.7094 8.58781 13.7308 10.1396 13.275C11.6913 12.8192 13.3529 12.9143 14.8426 13.544C16.3323 14.1737 17.5582 15.2994 18.3125 16.73C19.0668 18.1606 19.303 19.8082 18.981 21.3931C18.659 22.978 17.7987 24.4028 16.5459 25.4256C15.2931 26.4485 13.7251 27.0065 12.1078 27.005L12.1058 27.004Z" fill="white"/>
<path d="M28.9497 13.432H33.2587C37.4277 13.388 40.4987 16.084 40.4377 19.974C40.4987 23.786 37.4287 26.656 33.2587 26.594H28.9497V13.432ZM33.2327 24.17C35.8847 24.17 37.6637 22.513 37.6637 19.983C37.6637 17.427 35.9277 15.875 33.2327 15.875H31.6327V24.175H33.2327V24.17Z" fill="white"/>
<path d="M50.3116 26.603H47.8345V25.644C47.4408 26.0375 46.9708 26.3465 46.4534 26.552C45.936 26.7575 45.382 26.8551 44.8256 26.839C42.7326 26.839 41.4146 25.618 41.4146 23.891C41.4146 22.112 42.8535 21.021 45.1475 21.021H47.6245V20.585C47.6454 20.3435 47.6115 20.1005 47.5255 19.8739C47.4394 19.6474 47.3034 19.4431 47.1276 19.2763C46.9518 19.1095 46.7406 18.9845 46.5099 18.9105C46.2791 18.8365 46.0346 18.8155 45.7945 18.849C45.2837 18.8627 44.7827 18.9924 44.3293 19.2282C43.876 19.4639 43.4821 19.7997 43.1776 20.21L41.7775 18.553C42.2915 17.904 42.9487 17.3828 43.6976 17.0301C44.4465 16.6774 45.2669 16.5028 46.0946 16.52C46.6635 16.4659 47.2374 16.5381 47.7752 16.7316C48.313 16.925 48.8014 17.2349 49.2056 17.639C49.6097 18.0431 49.9196 18.5315 50.113 19.0693C50.3064 19.6071 50.3787 20.181 50.3246 20.75V26.603H50.3116ZM47.6115 22.791H45.5056C44.6246 22.791 44.1275 23.131 44.1275 23.785C44.1275 24.439 44.6856 24.858 45.5406 24.858C45.8069 24.8731 46.0734 24.8338 46.3241 24.7425C46.5747 24.6512 46.8041 24.5098 46.9983 24.327C47.1926 24.1442 47.3476 23.9237 47.4538 23.6791C47.5601 23.4345 47.6155 23.1707 47.6166 22.904L47.6115 22.791Z" fill="white"/>
<path d="M58.0476 26.839C57.4987 26.8565 56.9522 26.7592 56.4431 26.5535C55.9339 26.3477 55.4733 26.0379 55.0906 25.644V30.188H52.3906V16.731H54.8676V17.968C55.2388 17.4844 55.7226 17.0989 56.2768 16.8449C56.8311 16.591 57.439 16.4764 58.0476 16.511C58.7053 16.5172 59.3549 16.6572 59.9567 16.9227C60.5585 17.1881 61.1 17.5733 61.5481 18.0548C61.9962 18.5363 62.3415 19.104 62.563 19.7233C62.7846 20.3426 62.8777 21.0005 62.8366 21.657C62.8784 22.3154 62.7861 22.9754 62.5652 23.5971C62.3444 24.2187 61.9997 24.7891 61.5519 25.2736C61.1041 25.7581 60.5627 26.1467 59.9603 26.4157C59.358 26.6848 58.7073 26.8288 58.0476 26.839ZM57.5476 18.945C57.1993 18.9385 56.8536 19.006 56.5333 19.143C56.213 19.2801 55.9254 19.4836 55.6896 19.74C55.4537 19.9964 55.275 20.3 55.1652 20.6306C55.0554 20.9613 55.017 21.3114 55.0526 21.658C55.0169 22.0054 55.0551 22.3564 55.1646 22.6881C55.2742 23.0197 55.4526 23.3244 55.6882 23.5822C55.9238 23.84 56.2113 24.0451 56.5317 24.184C56.8522 24.3228 57.1984 24.3924 57.5476 24.388C57.8971 24.3894 58.2432 24.3189 58.5643 24.181C58.8855 24.0431 59.1749 23.8407 59.4145 23.5863C59.6542 23.3319 59.839 23.031 59.9576 22.7022C60.0761 22.3734 60.1258 22.0238 60.1036 21.675C60.1304 21.3246 60.084 20.9725 59.9676 20.6409C59.8511 20.3094 59.667 20.0057 59.427 19.749C59.187 19.4924 58.8962 19.2884 58.5732 19.15C58.2502 19.0115 57.902 18.9418 57.5506 18.945H57.5476Z" fill="white"/>
<path d="M70.0935 26.839C69.5446 26.8565 68.9981 26.7592 68.489 26.5535C67.9798 26.3477 67.5192 26.0379 67.1365 25.644V30.188H64.4365V16.731H66.9215V17.968C67.292 17.4856 67.7744 17.1007 68.3272 16.8468C68.8799 16.593 69.4862 16.4777 70.0935 16.511C70.7512 16.5172 71.4008 16.6572 72.0026 16.9227C72.6044 17.1881 73.1459 17.5733 73.594 18.0548C74.0421 18.5363 74.3874 19.104 74.6089 19.7233C74.8305 20.3426 74.9236 21.0005 74.8825 21.657C74.9243 22.3154 74.832 22.9754 74.6111 23.5971C74.3903 24.2187 74.0456 24.7891 73.5978 25.2736C73.15 25.7581 72.6086 26.1467 72.0062 26.4157C71.4039 26.6848 70.7532 26.8288 70.0935 26.839V26.839ZM69.5935 18.945C69.2452 18.9385 68.8995 19.006 68.5792 19.143C68.2589 19.2801 67.9713 19.4836 67.7355 19.74C67.4996 19.9964 67.3209 20.3 67.2111 20.6306C67.1013 20.9613 67.0629 21.3114 67.0985 21.658C67.0628 22.0054 67.101 22.3564 67.2105 22.6881C67.3201 23.0197 67.4985 23.3244 67.7341 23.5822C67.9697 23.84 68.2572 24.0451 68.5777 24.184C68.8981 24.3228 69.2443 24.3924 69.5935 24.388C69.943 24.3894 70.2891 24.3189 70.6102 24.181C70.9314 24.0431 71.2208 23.8407 71.4604 23.5863C71.7001 23.3319 71.8849 23.031 72.0035 22.7022C72.122 22.3734 72.1717 22.0238 72.1495 21.675C72.177 21.3244 72.1312 20.972 72.0151 20.6401C71.8989 20.3082 71.7148 20.0042 71.4746 19.7474C71.2345 19.4906 70.9434 19.2866 70.6201 19.1484C70.2967 19.0103 69.9481 18.941 69.5965 18.945H69.5935Z" fill="white"/>
<path d="M84.6787 26.603L81.2677 21.954H79.2967V26.603H76.5967V13.432H81.5427C84.2987 13.432 86.2877 15.15 86.2877 17.68C86.3017 18.4608 86.0915 19.2293 85.6818 19.8942C85.2722 20.559 84.6804 21.0924 83.9767 21.431L87.7097 26.595H84.6787V26.603ZM79.2887 19.582H81.5417C81.8019 19.6097 82.0651 19.5806 82.3131 19.4967C82.561 19.4129 82.7878 19.2763 82.9779 19.0964C83.168 18.9165 83.3168 18.6975 83.4142 18.4545C83.5115 18.2116 83.555 17.9504 83.5417 17.689C83.55 17.4297 83.5029 17.1716 83.4036 16.932C83.3043 16.6923 83.1551 16.4765 82.9658 16.2991C82.7766 16.1217 82.5516 15.9866 82.3061 15.903C82.0605 15.8193 81.7999 15.789 81.5417 15.814H79.2917L79.2887 19.582Z" fill="white"/>
<path d="M96.7588 26.603H94.2818V25.644C93.888 26.0376 93.418 26.3465 92.9006 26.552C92.3832 26.7575 91.8293 26.8552 91.2728 26.839C89.1798 26.839 87.8618 25.618 87.8618 23.891C87.8618 22.112 89.3008 21.021 91.5948 21.021H94.0718V20.585C94.0927 20.3434 94.0588 20.1001 93.9726 19.8734C93.8865 19.6467 93.7503 19.4423 93.5743 19.2754C93.3982 19.1086 93.1868 18.9836 92.9557 18.9098C92.7247 18.836 92.48 18.8152 92.2398 18.849C91.729 18.8628 91.228 18.9924 90.7746 19.2282C90.3212 19.464 89.9274 19.7997 89.6228 20.21L88.2228 18.553C88.736 17.9054 89.392 17.385 90.1394 17.0325C90.8868 16.68 91.7056 16.505 92.5318 16.521C93.1008 16.4669 93.6747 16.5392 94.2125 16.7326C94.7503 16.926 95.2387 17.2359 95.6428 17.64C96.047 18.0442 96.3568 18.5326 96.5503 19.0704C96.7437 19.6082 96.8159 20.1821 96.7618 20.751V26.604L96.7588 26.603ZM94.0588 22.791H91.9478C91.0668 22.791 90.5698 23.131 90.5698 23.785C90.5698 24.439 91.1278 24.858 91.9828 24.858C92.2491 24.8731 92.5157 24.8338 92.7663 24.7425C93.017 24.6512 93.2464 24.5099 93.4406 24.3271C93.6348 24.1442 93.7898 23.9238 93.8961 23.6791C94.0024 23.4345 94.0577 23.1708 94.0588 22.904V22.791Z" fill="white"/>
<path d="M108.727 11.635V26.594H106.25V25.373C105.879 25.8559 105.396 26.241 104.843 26.4949C104.289 26.7488 103.682 26.8638 103.075 26.83C102.416 26.8232 101.765 26.6822 101.162 26.4154C100.559 26.1487 100.017 25.7618 99.569 25.2785C99.1208 24.7952 98.7758 24.2256 98.5551 23.6045C98.3345 22.9833 98.2428 22.3238 98.2856 21.666C98.2428 21.0083 98.3345 20.3487 98.5551 19.7276C98.7758 19.1064 99.1208 18.5368 99.569 18.0535C100.017 17.5702 100.559 17.1834 101.162 16.9166C101.765 16.6498 102.416 16.5088 103.075 16.502C103.623 16.4757 104.171 16.5672 104.681 16.7704C105.191 16.9736 105.652 17.2838 106.032 17.68V11.635H108.727ZM103.581 18.945C103.231 18.9436 102.885 19.0141 102.564 19.152C102.243 19.2899 101.953 19.4923 101.714 19.7467C101.474 20.0011 101.289 20.302 101.171 20.6308C101.052 20.9596 101.002 21.3092 101.025 21.658C100.997 22.0088 101.043 22.3615 101.159 22.6936C101.276 23.0257 101.46 23.3299 101.701 23.5867C101.941 23.8436 102.232 24.0475 102.556 24.1855C102.88 24.3235 103.229 24.3924 103.581 24.388C103.929 24.3945 104.275 24.327 104.595 24.1899C104.915 24.0529 105.203 23.8494 105.439 23.593C105.675 23.3366 105.853 23.033 105.963 22.7024C106.073 22.3717 106.111 22.0216 106.076 21.675C106.11 21.3279 106.071 20.9774 105.961 20.6464C105.851 20.3154 105.672 20.0113 105.437 19.7538C105.201 19.4963 104.915 19.2912 104.595 19.1519C104.275 19.0126 103.929 18.9421 103.581 18.945V18.945Z" fill="white"/>
<path d="M119.176 26.603H116.699V25.644C116.305 26.0376 115.835 26.3465 115.318 26.552C114.8 26.7575 114.246 26.8552 113.69 26.839C111.597 26.839 110.279 25.618 110.279 23.891C110.279 22.112 111.718 21.021 114.012 21.021H116.489V20.585C116.51 20.3434 116.476 20.1001 116.39 19.8734C116.303 19.6467 116.167 19.4423 115.991 19.2754C115.815 19.1086 115.604 18.9836 115.373 18.9098C115.142 18.836 114.897 18.8152 114.657 18.849C114.146 18.8628 113.645 18.9924 113.192 19.2282C112.738 19.464 112.344 19.7997 112.04 20.21L110.64 18.553C111.153 17.9054 111.809 17.385 112.556 17.0325C113.304 16.68 114.123 16.505 114.949 16.521C115.518 16.4669 116.092 16.5392 116.629 16.7326C117.167 16.926 117.656 17.2359 118.06 17.64C118.464 18.0442 118.774 18.5326 118.967 19.0704C119.161 19.6082 119.233 20.1821 119.179 20.751V26.604L119.176 26.603ZM116.489 22.791H114.379C113.498 22.791 113.001 23.131 113.001 23.785C113.001 24.439 113.559 24.858 114.414 24.858C114.68 24.8731 114.947 24.8338 115.197 24.7425C115.448 24.6512 115.677 24.5099 115.872 24.3271C116.066 24.1442 116.221 23.9238 116.327 23.6791C116.433 23.4345 116.489 23.1708 116.49 22.904L116.489 22.791Z" fill="white"/>
<path d="M127.332 19.102H126.617C126.265 19.0611 125.909 19.0989 125.574 19.2126C125.239 19.3262 124.934 19.513 124.68 19.7593C124.426 20.0056 124.23 20.3052 124.107 20.6366C123.983 20.9679 123.934 21.3226 123.965 21.675V26.603H121.265V16.729H123.742V17.907C124.064 17.4974 124.477 17.1672 124.947 16.9419C125.417 16.7165 125.933 16.602 126.455 16.607C126.753 16.5991 127.051 16.6404 127.336 16.729V19.102H127.332Z" fill="white"/>
</svg>
